<?xml version="1.0" encoding="UTF-8" standalone="no"?>
<svg width="417px" height="637px" viewBox="0 0 417 637" version="1.1" xmlns="http://www.w3.org/2000/svg" xmlns:xlink="http://www.w3.org/1999/xlink">
    <!-- Generator: Sketch 42 (36781) - http://www.bohemiancoding.com/sketch -->
    <title>Group 7</title>
    <desc>Created with Sketch.</desc>
    <defs>
        <rect id="path-1" x="47" y="0" width="367" height="637" rx="23"></rect>
        <mask id="mask-2" maskContentUnits="userSpaceOnUse" maskUnits="objectBoundingBox" x="0" y="0" width="367" height="637" fill="white">
            <use xlink:href="#path-1"></use>
        </mask>
    </defs>
    <g id="Welcome" stroke="none" stroke-width="1" fill="none" fill-rule="evenodd">
        <g id="Desktop" transform="translate(-115.000000, -145.000000)">
            <g id="Group-7" transform="translate(118.000000, 145.000000)">
                <path d="M67.4010228,97 C82.312711,97 94.4010228,84.9116882 94.4010228,70 C94.4010228,55.0883118 82.312711,43 67.4010228,43 C66.6321093,43 67.1629603,97 67.4010228,97 Z" id="Oval" fill="#0E2F7F"></path>
                <g id="Group" transform="translate(94.000000, 33.000000)" fill="#0E2F7F">
                    <g id="Group-2" transform="translate(15.274579, 15.539466) rotate(23.000000) translate(-15.274579, -15.539466) translate(3.774579, 3.539466)">
                        <polygon id="Polygon" transform="translate(11.176052, 16.052008) rotate(-19.000000) translate(-11.176052, -16.052008) " points="14.0332274 11.5716957 20.433084 13.8476363 1.91902101 20.5323211"></polygon>
                        <polygon id="Polygon" transform="translate(12.734071, 7.468159) scale(-1, -1) rotate(-19.000000) translate(-12.734071, -7.468159) " points="15.5912455 2.98784605 21.9911021 5.26378665 3.47703912 11.9484714"></polygon>
                    </g>
                </g>
                <path d="M233.223053,596.062079 C232.993249,595.635656 232.756742,595.08217 232.51382,594.377562 C230.25071,587.813286 230.072876,571.571997 227.74517,571.571997 C225.86893,571.571997 224.803682,590.261624 223.736355,594.175975 L223.733431,594.186665 C224.340016,600.193356 224.38562,607.495993 223.022038,618 C223.009766,618.094535 140.23164,624.619693 122.756487,620.212855 C105.281334,615.806016 117.0501,597.75499 126.9947,592.780926 C136.939299,587.806862 131.234909,599.200124 162.905012,591.110944 C177.670776,587.339471 181.10923,581.499504 180.924003,566.203609 C180.914786,565.442527 180.986791,564.743745 181.132781,564.103962 C171.060522,547.492041 164.690711,525.490754 164.047622,501.216526 C151.357177,485.405747 141.924291,464.805992 137.283506,441.511806 C127.712816,433.888262 119.932893,423.694419 114.198282,411.703207 C109.686009,415.029193 104.077501,417 98,417 C83.0883118,417 71,405.135546 71,390.5 C71,378.112816 79.6595039,367.710712 91.3611365,364.80704 C92.6164013,355.856699 97.0703137,347.898618 103.563535,342.06241 C104.714181,330.786139 107.118399,319.236228 110.868766,307.693787 C115.237843,294.247149 121.090907,281.866161 128.048302,270.824355 C136.383151,228.070571 161.096403,200.154204 193.315157,188.389664 C195.798751,186.21943 198.284448,184.200901 200.745538,182.344698 C212.864578,173.20428 215.662859,168 230.5,168 C245.203056,168 251.046049,173.110642 263.088179,182.097854 C266.480363,184.62949 269.865022,187.468736 273.187154,190.588006 C301.97855,203.111662 323.995826,229.217898 332.34812,267.88592 C340.072429,279.596199 346.53968,292.901658 351.268503,307.45548 C355.304087,319.875729 357.780986,332.304626 358.814545,344.391928 C364.011751,349.940693 367.543384,356.996004 368.638864,364.80704 C380.340496,367.710712 389,378.112816 389,390.5 C389,405.135546 376.911688,417 362,417 C356.585525,417 351.543294,415.435747 347.316845,412.742567 C339.3986,428.715258 327.788236,441.378876 313.10726,448.846199 C308.598416,466.984556 301.133481,483.260058 291.495572,496.603802 C291.496209,496.784725 291.496528,496.965765 291.496528,497.146919 C291.496528,522.149427 285.423867,544.968352 275.425386,562.29858 C275.951982,563.321905 276.231817,564.550267 276.214179,566.006804 C276.028952,581.3027 279.467406,587.142666 294.23317,590.914139 C325.903273,599.00332 320.198883,587.610058 330.143482,592.584122 C340.088082,597.558185 351.856848,615.609212 334.381695,620.01605 C316.906542,624.422888 234.128416,617.89773 234.116144,617.803195 C232.905465,608.477034 232.805657,601.674538 233.223053,596.062076 L233.223053,596.062079 Z" id="Combined-Shape" stroke="#0E2F7F" stroke-width="3" fill="#CFD5E5"></path>
                <path d="M233.223053,596.062079 C232.993249,595.635656 232.756742,595.08217 232.51382,594.377562 C230.25071,587.813286 230.072876,571.571997 227.74517,571.571997 C225.86893,571.571997 224.803682,590.261624 223.736355,594.175975 L223.733431,594.186665 C224.340016,600.193356 224.38562,607.495993 223.022038,618 C223.009766,618.094535 140.23164,624.619693 122.756487,620.212855 C105.281334,615.806016 117.0501,597.75499 126.9947,592.780926 C136.939299,587.806862 131.234909,599.200124 162.905012,591.110944 C177.670776,587.339471 181.10923,581.499504 180.924003,566.203609 C180.914786,565.442527 180.986791,564.743745 181.132781,564.103962 C171.060522,547.492041 164.690711,525.490754 164.047622,501.216526 C151.357177,485.405747 141.924291,464.805992 137.283506,441.511806 C127.712816,433.888262 119.932893,423.694419 114.198282,411.703207 C109.686009,415.029193 104.077501,417 98,417 C83.0883118,417 71,405.135546 71,390.5 C71,378.112816 79.6595039,367.710712 91.3611365,364.80704 C92.6164013,355.856699 97.0703137,347.898618 103.563535,342.06241 C104.714181,330.786139 107.118399,319.236228 110.868766,307.693787 C115.237843,294.247149 121.090907,281.866161 128.048302,270.824355 C136.383151,228.070571 161.096403,200.154204 193.315157,188.389664 C195.798751,186.21943 198.284448,184.200901 200.745538,182.344698 C212.864578,173.20428 215.662859,168 230.5,168 C245.203056,168 251.046049,173.110642 263.088179,182.097854 C266.480363,184.62949 269.865022,187.468736 273.187154,190.588006 C301.97855,203.111662 323.995826,229.217898 332.34812,267.88592 C340.072429,279.596199 346.53968,292.901658 351.268503,307.45548 C355.304087,319.875729 357.780986,332.304626 358.814545,344.391928 C364.011751,349.940693 367.543384,356.996004 368.638864,364.80704 C380.340496,367.710712 389,378.112816 389,390.5 C389,405.135546 376.911688,417 362,417 C356.585525,417 351.543294,415.435747 347.316845,412.742567 C339.3986,428.715258 327.788236,441.378876 313.10726,448.846199 C308.598416,466.984556 301.133481,483.260058 291.495572,496.603802 C291.496209,496.784725 291.496528,496.965765 291.496528,497.146919 C291.496528,522.149427 285.423867,544.968352 275.425386,562.29858 C275.951982,563.321905 276.231817,564.550267 276.214179,566.006804 C276.028952,581.3027 279.467406,587.142666 294.23317,590.914139 C325.903273,599.00332 320.198883,587.610058 330.143482,592.584122 C340.088082,597.558185 351.856848,615.609212 334.381695,620.01605 C316.906542,624.422888 234.128416,617.89773 234.116144,617.803195 C232.905465,608.477034 232.805657,601.674538 233.223053,596.062076 L233.223053,596.062079 Z" id="Combined-Shape-Copy-4" fill="#CFD5E5"></path>
                <g id="Group-Copy-2" transform="translate(112.500000, 81.000000) scale(1, -1) translate(-112.500000, -81.000000) translate(97.000000, 65.000000)" fill="#0E2F7F">
                    <g id="Group-2" transform="translate(15.274579, 15.539466) rotate(23.000000) translate(-15.274579, -15.539466) translate(3.774579, 3.539466)">
                        <polygon id="Polygon" transform="translate(11.176052, 16.052008) rotate(-19.000000) translate(-11.176052, -16.052008) " points="14.0332274 11.5716957 20.433084 13.8476363 1.91902101 20.5323211"></polygon>
                        <polygon id="Polygon" transform="translate(12.734071, 7.468159) scale(-1, -1) rotate(-19.000000) translate(-12.734071, -7.468159) " points="15.5912455 2.98784605 21.9911021 5.26378665 3.47703912 11.9484714"></polygon>
                    </g>
                </g>
                <g id="Group-Copy" transform="translate(114.667741, 64.921145) rotate(24.000000) translate(-114.667741, -64.921145) translate(99.167741, 48.921145)" fill="#0E2F7F">
                    <g id="Group-2" transform="translate(15.274579, 15.539466) rotate(23.000000) translate(-15.274579, -15.539466) translate(3.774579, 3.539466)">
                        <polygon id="Polygon" transform="translate(11.176052, 16.052008) rotate(-19.000000) translate(-11.176052, -16.052008) " points="14.0332274 11.5716957 20.433084 13.8476363 1.91902101 20.5323211"></polygon>
                        <polygon id="Polygon" transform="translate(12.734071, 7.468159) scale(-1, -1) rotate(-19.000000) translate(-12.734071, -7.468159) " points="15.5912455 2.98784605 21.9911021 5.26378665 3.47703912 11.9484714"></polygon>
                    </g>
                </g>
                <path d="M278.748266,150.031255 C269.494264,169.741463 252.212372,183 232.420279,183 C212.813481,183 195.670103,169.988556 186.354308,150.58314 C177.189046,152.258293 166.584645,143.069819 162.060667,129.146447 C157.282037,114.439335 161.097195,100.018556 170.582062,96.9367359 C173.973069,95.8349309 177.629681,96.3316261 181.146919,98.0967472 C187.735922,70.857834 208.198286,51 232.420279,51 C256.710601,51 277.220054,70.9700297 283.74907,98.3274457 C287.593127,96.0947052 291.657773,95.3644978 295.399101,96.5801288 C304.883968,99.6619489 308.699126,114.082728 303.920496,128.78984 C299.251187,143.160495 288.104516,152.487153 278.748266,150.031255 Z" id="Combined-Shape" stroke="#0E2F7F" stroke-width="3" fill="#CFD5E5"></path>
                <path d="M278.748266,150.031255 C269.494264,169.741463 252.212372,183 232.420279,183 C212.813481,183 195.670103,169.988556 186.354308,150.58314 C177.189046,152.258293 166.584645,143.069819 162.060667,129.146447 C157.282037,114.439335 161.097195,100.018556 170.582062,96.9367359 C173.973069,95.8349309 177.629681,96.3316261 181.146919,98.0967472 C187.735922,70.857834 208.198286,51 232.420279,51 C256.710601,51 277.220054,70.9700297 283.74907,98.3274457 C287.593127,96.0947052 291.657773,95.3644978 295.399101,96.5801288 C304.883968,99.6619489 308.699126,114.082728 303.920496,128.78984 C299.251187,143.160495 288.104516,152.487153 278.748266,150.031255 Z" id="Combined-Shape-Copy-2" fill="#CFD5E5"></path>
                <path d="M280.431935,91.0884051 C280.431935,91.0884051 296.779158,74.3264119 296.779158,74.284877 C295.717649,68.1302255 293.45255,61.7726735 289.936213,55.6821996 C278.062091,35.1156168 256.416497,25.3826936 241.589425,33.9431073 C237.982645,36.0254829 235.111585,38.9985221 233.002655,42.601727 C230.897894,39.0325229 228.04182,36.08649 224.46029,34.0186932 C209.633219,25.4582796 187.987625,35.1912028 176.113503,55.7577856 C172.603651,61.8370281 170.340425,68.1823647 169.276443,74.3264119 C169.276443,74.3264119 177.460346,83.969945 187.904708,90 C188.001222,90.0557228 188.097753,90.1114542 188.194298,90.167186 C189.90141,85.9468209 198.125128,74.496775 202.407259,70.7102698 C207.058774,66.5971338 221.339163,57.3166561 228.781613,61.6135566 C230.536291,62.6266204 231.941412,64.0642433 232.985385,65.806548 C234.031674,64.0470005 235.444504,62.5957217 237.212028,61.5752411 C244.654478,57.2783407 257.362574,66.3467287 263.586382,70.6719544 C269.81019,74.9971801 279.88457,87.9738928 280.431935,91.0884051 L280.431935,91.0884051 Z" id="Combined-Shape" fill="#8C2577"></path>
                <path d="M202.528251,73.9458601 C206.113762,67.8689416 212.96221,66.5270922 218.31525,68.4754393 C221.344977,69.5781699 223.485921,72.7133322 223.485921,76 C223.485921,78.7080321 219.390304,78.8685749 218.126047,76 C216.620306,72.5834998 215.555772,71.9576659 212.471666,71.6878416 C208.536853,71.3435901 207.344343,72.3359104 204.948361,75.9656993 C203.491648,78.1725436 201.336503,75.9656993 202.528251,73.9458601 Z" id="Combined-Shape" fill="#8C2577"></path>
                <path d="M244.345849,74.3014716 C247.93136,68.2245531 254.779808,66.8827036 260.132848,68.8310507 C263.162575,69.9337814 265.303519,73.0689436 265.303519,76.3556115 C265.303519,79.0636435 261.207902,79.2241863 259.943645,76.3556115 C258.437904,72.9391112 257.37337,72.3132773 254.289264,72.043453 C250.354451,71.6992015 249.161941,72.6915219 246.765959,76.3213107 C245.309246,78.528155 243.154101,76.3213107 244.345849,74.3014716 Z" id="Combined-Shape-Copy" fill="#8C2577" transform="translate(254.651759, 73.223636) scale(-1, 1) translate(-254.651759, -73.223636) "></path>
                <g id="Group-3" transform="translate(212.500000, 93.000000) rotate(-11.000000) translate(-212.500000, -93.000000) translate(202.000000, 79.000000)" fill="#8C2577">
                    <path d="M8.56180603,26.4026071 C5.87998264,25.2595928 4,22.5993431 4,19.5 C4,15.3578644 7.35786438,12 11.5,12 C15.6421356,12 19,15.3578644 19,19.5 C19,22.5993431 17.1200174,25.2595928 14.438194,26.4026071 C14.7935928,25.8548907 15,25.2015498 15,24.5 C15,22.5670034 13.4329966,21 11.5,21 C9.56700338,21 8,22.5670034 8,24.5 C8,25.2015498 8.20640717,25.8548907 8.56180603,26.4026071 Z" id="Combined-Shape"></path>
                    <path d="M9.60664429,27.4441763 C5.42895027,26.3020447 1.86656309,21.3748873 1.09697341,15.1070824 C0.167793118,7.53951616 3.66166063,0.883311264 8.90074492,0.240032601 C14.1398292,-0.403246063 19.1401956,5.20999805 20.0693759,12.7775642 C20.9236324,19.7349249 18.0393818,25.9219726 13.4975089,27.3743914 C14.4056553,26.7421062 15,25.6904614 15,24.5 C15,24.4839861 14.9998925,24.4679973 14.999678,24.4520344 C17.5788449,22.3422715 19.0382759,18.0861878 18.4646379,13.4142807 C17.6906122,7.11034756 13.508116,2.43650211 9.12277119,2.97495475 C4.73742636,3.51340739 1.80987376,9.06025705 2.58389942,15.3641902 C3.11953376,19.7265818 5.28741413,23.308358 8.02523018,24.922411 C8.15251602,25.9805263 8.7519155,26.8933762 9.60664429,27.4441763 Z" id="Combined-Shape"></path>
                </g>
                <path d="M258.587921,160.690416 C253.239336,151.883426 243.556742,146 232.5,146 C221.850718,146 212.476171,151.457787 207.020902,159.728817 C207.020902,159.728817 258.587921,160.690416 258.587921,160.690416 Z" id="Oval-6" fill="#8C2577"></path>
                <g id="Group-3-Copy" transform="translate(252.325107, 92.746275) scale(-1, 1) rotate(-11.000000) translate(-252.325107, -92.746275) translate(241.825107, 78.746275)" fill="#8C2577">
                    <path d="M8.56180603,26.4026071 C5.87998264,25.2595928 4,22.5993431 4,19.5 C4,15.3578644 7.35786438,12 11.5,12 C15.6421356,12 19,15.3578644 19,19.5 C19,22.5993431 17.1200174,25.2595928 14.438194,26.4026071 C14.7935928,25.8548907 15,25.2015498 15,24.5 C15,22.5670034 13.4329966,21 11.5,21 C9.56700338,21 8,22.5670034 8,24.5 C8,25.2015498 8.20640717,25.8548907 8.56180603,26.4026071 Z" id="Combined-Shape"></path>
                    <path d="M9.60664429,27.4441763 C5.42895027,26.3020447 1.86656309,21.3748873 1.09697341,15.1070824 C0.167793118,7.53951616 3.66166063,0.883311264 8.90074492,0.240032601 C14.1398292,-0.403246063 19.1401956,5.20999805 20.0693759,12.7775642 C20.9236324,19.7349249 18.0393818,25.9219726 13.4975089,27.3743914 C14.4056553,26.7421062 15,25.6904614 15,24.5 C15,24.4839861 14.9998925,24.4679973 14.999678,24.4520344 C17.5788449,22.3422715 19.0382759,18.0861878 18.4646379,13.4142807 C17.6906122,7.11034756 13.508116,2.43650211 9.12277119,2.97495475 C4.73742636,3.51340739 1.80987376,9.06025705 2.58389942,15.3641902 C3.11953376,19.7265818 5.28741413,23.308358 8.02523018,24.922411 C8.15251602,25.9805263 8.7519155,26.8933762 9.60664429,27.4441763 Z" id="Combined-Shape"></path>
                </g>
                <path d="M243,160 C243,156.686292 238.522847,154 233,154 C227.477153,154 223,156.686292 223,160 C223,160 243,160 243,160 Z" id="Oval-6" fill="#0E2F7F"></path>
                <circle id="Oval-7-Copy" fill="#0E2F7F" cx="231.5" cy="123.5" r="11.5"></circle>
                <circle id="Oval-7" fill="#8C2577" cx="232.5" cy="121.5" r="10.5"></circle>
                <path d="M174.553479,140.445143 C171.482528,137.640609 168.817336,133.481083 167.197965,128.497173 C163.711507,117.766958 166.392983,107.278804 173.187209,105.071226 C177.545395,103.655166 182.537201,105.990231 186.476713,110.67881 C188.678732,113.299525 185.360798,110.483388 185.360798,110.483388 C181.943802,107.227862 177.976397,105.754084 174.455838,106.897983 C168.028868,108.986232 165.524842,119.007499 168.86294,129.28111 C170.409893,134.042141 172.940035,138.021858 175.849521,140.7141 C177.872064,142.585624 176.975972,142.657476 174.553479,140.445143 Z" id="Combined-Shape" fill="#0E2F7F"></path>
                <path d="M286.88359,140.784774 C283.812639,137.98024 281.147447,133.820714 279.528077,128.836804 C276.041618,118.106589 278.723094,107.618435 285.51732,105.410857 C289.875506,103.994797 294.867312,106.329862 298.806824,111.018441 C301.008843,113.639156 297.690909,110.823019 297.690909,110.823019 C294.273913,107.567493 290.306508,106.093715 286.785949,107.237614 C280.358979,109.325863 277.854953,119.34713 281.193051,129.620741 C282.740004,134.381772 285.270146,138.361489 288.179632,141.05373 C290.202175,142.925255 289.306083,142.997107 286.88359,140.784774 Z" id="Combined-Shape-Copy-3" fill="#0E2F7F" transform="translate(288.780723, 123.725796) scale(-1, 1) translate(-288.780723, -123.725796) "></path>
                <path d="M283.84182,234.732316 C291.865083,245.203983 297,261.859565 297,288.350874 C297,290.186709 323.916349,339.084325 323.916349,339.084325 L323.916349,339.084325 C328.967794,353.838164 332,362.116392 332,377.33121 C332,456.397865 286.766041,476.485475 228.5,476.485475 C170.233959,476.485475 124,456.397865 124,377.33121 C124,360.387384 127.806446,350.364916 134.000617,334.075635 C134.000206,333.918606 165.221819,283.508035 165.221819,283.350874 C165.221819,259.424812 168.937186,244.08231 175.029702,234.257712" id="Combined-Shape" stroke="#0E2F7F"></path>
                <g id="Group-6" transform="translate(264.000000, 375.000000)">
                    <polygon id="Rectangle-5" fill="#54B4D2" transform="translate(28.491122, 22.697299) rotate(-9.000000) translate(-28.491122, -22.697299) " points="0.991122319 14.1972987 55.9911223 14.1972987 55.9911223 31.1972987 0.991122319 31.1972987 5.11052997 28.8334152 16.3930342 22.66808 6.9380539 17.2948833"></polygon>
                    <rect id="Rectangle" fill="#8C2577" transform="translate(73.318265, 15.424103) rotate(-8.000000) translate(-73.318265, -15.424103) " x="44.3182647" y="3.92410272" width="58" height="23" rx="11.5"></rect>
                    <rect id="Rectangle-Copy" fill="#8C2577" transform="translate(103.424459, 11.132432) rotate(-8.000000) translate(-103.424459, -11.132432) " x="92.5431273" y="6.46900449" width="21.7626631" height="9.3268556" rx="4.6634278"></rect>
                </g>
                <use id="Rectangle-3" stroke="#8C2577" mask="url(#mask-2)" stroke-width="40" xlink:href="#path-1"></use>
                <path d="M70.6233441,68.8223933 C70.6233441,68.8223933 0.608882639,53.6150457 0.608882639,106.807523 C0.608882639,160 87.7180624,171.238424 141.122842,240.373052 C194.527622,309.50768 118.636322,355.027796 173.366493,428.031436 C228.096663,501.035076 332.249801,486.235821 358.199257,461.606117 C384.148712,436.976412 374.797359,385.202133 374.797359,385.202133" id="Path-2" stroke="#0E2F7F" stroke-width="6"></path>
            </g>
        </g>
    </g>
</svg>